<svg width="171" height="173" viewBox="0 0 171 173" fill="none" xmlns="http://www.w3.org/2000/svg">
<mask id="mask0" mask-type="alpha" maskUnits="userSpaceOnUse" x="0" y="0" width="171" height="173">
<rect width="171" height="173" rx="30" fill="#F4F4F4"/>
</mask>
<g mask="url(#mask0)">
<rect width="171" height="173" rx="30" fill="#F4F4F4"/>
<path d="M95.8291 60.4449C99.7049 58.815 103.536 58 107.321 58C111.107 58 113 61.3763 113 68.1289C113 73.0963 111.918 78.1414 109.755 83.264C107.682 88.3867 105.068 92.8884 101.913 96.7692C95.4235 104.919 89.5646 110.352 84.3367 113.069C83.0748 113.69 82.1284 114 81.4974 114C80.8665 114 80.1905 113.418 79.4694 112.254C78.8384 111.089 77.8019 108.528 76.3597 104.57C75.0077 100.611 73.881 97.0797 72.9796 93.975L71.7628 89.2017C69.96 82.3714 68.2024 76.9383 66.4898 72.9023C64.7772 68.7886 63.5153 66.4213 62.7041 65.8004L61.352 64.7526C60.4507 64.3645 60 63.8988 60 63.3555L60.676 62.3077C61.8478 61.3763 63.7857 60.4449 66.4898 59.5135C69.284 58.5045 72.3486 58 75.6837 58C77.216 58 78.1624 58.7374 78.523 60.2121C79.875 63.7824 81.0468 67.9737 82.0383 72.7859C83.0298 77.5981 84.3367 83.0312 85.9592 89.0852C87.6718 95.1393 89.0689 98.2051 90.1505 98.2827C90.6913 98.2827 91.2772 97.9335 91.9082 97.2349C92.6292 96.5364 93.4405 95.605 94.3418 94.4407C95.3333 93.2765 96.5051 91.0256 97.8571 87.6881C99.2993 84.3507 100.02 81.5177 100.02 79.1892C100.02 76.7831 99.8852 74.9591 99.6148 73.7173C99.4345 72.3978 98.6684 70.8843 97.3163 69.1767C95.9643 67.4692 94.432 66.499 92.7194 66.2661C91.0068 65.9556 90.1505 65.4511 90.1505 64.7526C90.1505 63.5107 92.0434 62.0748 95.8291 60.4449Z" fill="#2E2E2E"/>
<path d="M69 145.5C38.5 145.5 19 165 -20 162.5L-17.5 196L179 203.5L243.5 137.5C205 137.5 186 127 149.5 127C114.5 127 99.5 145.5 69 145.5Z" fill="url(#paint0_linear)"/>
</g>
<defs>
<linearGradient id="paint0_linear" x1="-20" y1="203" x2="199.5" y2="203" gradientUnits="userSpaceOnUse">
<stop stop-color="#FFCF72"/>
<stop offset="1" stop-color="#FF9270"/>
</linearGradient>
</defs>
</svg>
